# Blender 3.3.1
# www.blender.org
mtllib Health.mtl
o Cube
v -1.000000 -1.000000 1.000000
v -1.000000 1.000000 1.000000
v -1.000000 -1.000000 -1.000000
v -0.936780 1.077909 -1.000000
v 1.000000 -1.000000 1.000000
v 1.000000 1.000000 1.000000
v 1.000000 -1.000000 -1.000000
v 0.936780 1.077909 -1.000000
v -4.210319 -0.262040 -0.262040
v -3.472359 -1.000000 -1.000000
v -3.472359 -1.000000 1.000000
v -4.210319 -0.262040 0.262040
v -3.472359 1.000000 1.000000
v -4.210319 0.262040 0.262040
v -3.472359 1.000000 -1.000000
v -4.210319 0.262040 -0.262040
v -1.000000 3.464694 1.000000
v -0.257200 4.207494 0.257200
v -0.257200 4.207494 -0.257200
v -0.936780 3.386785 -1.000000
v 0.257200 4.207494 -0.257200
v 0.936780 3.386785 -1.000000
v 0.257200 4.207494 0.257200
v 1.000000 3.464694 1.000000
v 1.000000 -1.000000 1.000000
v 1.000000 1.000000 1.000000
v 1.000000 -1.000000 -1.000000
v 0.936780 1.077909 -1.000000
v -1.000000 -1.000000 1.000000
v -1.000000 1.000000 1.000000
v -1.000000 -1.000000 -1.000000
v -0.936780 1.077909 -1.000000
v 4.210319 -0.262040 -0.262040
v 3.472359 -1.000000 -1.000000
v 3.472359 -1.000000 1.000000
v 4.210319 -0.262040 0.262040
v 3.472359 1.000000 1.000000
v 4.210319 0.262040 0.262040
v 3.472359 1.000000 -1.000000
v 4.210319 0.262040 -0.262040
v 1.000000 3.464694 1.000000
v 0.257200 4.207494 0.257200
v 0.257200 4.207494 -0.257200
v 0.936780 3.386785 -1.000000
v -0.257200 4.207494 -0.257200
v -0.936780 3.386785 -1.000000
v -0.257200 4.207494 0.257200
v -1.000000 3.464694 1.000000
v -1.000000 1.000000 1.000000
v -1.000000 -1.000000 1.000000
v -1.000000 1.000000 -1.000000
v -0.936780 -1.077909 -1.000000
v 1.000000 1.000000 1.000000
v 1.000000 -1.000000 1.000000
v 1.000000 1.000000 -1.000000
v 0.936780 -1.077909 -1.000000
v -4.210319 0.262040 -0.262040
v -3.472359 1.000000 -1.000000
v -3.472359 1.000000 1.000000
v -4.210319 0.262040 0.262040
v -3.472359 -1.000000 1.000000
v -4.210319 -0.262040 0.262040
v -3.472359 -1.000000 -1.000000
v -4.210319 -0.262040 -0.262040
v -1.000000 -3.464694 1.000000
v -0.257200 -4.207494 0.257200
v -0.257200 -4.207494 -0.257200
v -0.936780 -3.386785 -1.000000
v 0.257200 -4.207494 -0.257200
v 0.936780 -3.386785 -1.000000
v 0.257200 -4.207494 0.257200
v 1.000000 -3.464694 1.000000
v 1.000000 1.000000 1.000000
v 1.000000 -1.000000 1.000000
v 1.000000 1.000000 -1.000000
v 0.936780 -1.077909 -1.000000
v -1.000000 1.000000 1.000000
v -1.000000 -1.000000 1.000000
v -1.000000 1.000000 -1.000000
v -0.936780 -1.077909 -1.000000
v 4.210319 0.262040 -0.262040
v 3.472359 1.000000 -1.000000
v 3.472359 1.000000 1.000000
v 4.210319 0.262040 0.262040
v 3.472359 -1.000000 1.000000
v 4.210319 -0.262040 0.262040
v 3.472359 -1.000000 -1.000000
v 4.210319 -0.262040 -0.262040
v 1.000000 -3.464694 1.000000
v 0.257200 -4.207494 0.257200
v 0.257200 -4.207494 -0.257200
v 0.936780 -3.386785 -1.000000
v -0.257200 -4.207494 -0.257200
v -0.936780 -3.386785 -1.000000
v -0.257200 -4.207494 0.257200
v -1.000000 -3.464694 1.000000
vn -0.0000 -0.0000 1.0000
vn -0.0000 -0.0000 -1.0000
vn 0.9998 0.0155 -0.0155
vn -0.0000 -1.0000 -0.0000
vn -0.0156 0.9997 0.0192
vn -0.0000 1.0000 -0.0000
vn 0.9995 -0.0000 -0.0316
vn -0.7071 -0.7071 -0.0000
vn -0.7071 -0.0000 0.7071
vn -0.7071 0.7071 -0.0000
vn -0.7071 -0.0000 -0.7071
vn -1.0000 -0.0000 -0.0000
vn -0.7391 0.6724 -0.0394
vn -0.0000 0.6710 -0.7414
vn 0.7391 0.6724 -0.0394
vn -0.0000 0.7071 0.7071
vn -0.9995 -0.0000 -0.0316
vn -0.9998 0.0155 -0.0155
vn 0.0156 0.9997 0.0192
vn 0.7071 -0.7071 -0.0000
vn 0.7071 -0.0000 0.7071
vn 0.7071 0.7071 -0.0000
vn 0.7071 -0.0000 -0.7071
vn 1.0000 -0.0000 -0.0000
vn 0.9998 -0.0155 -0.0155
vn -0.0156 -0.9997 0.0192
vn -0.7391 -0.6724 -0.0394
vn -0.0000 -0.6710 -0.7414
vn 0.7391 -0.6724 -0.0394
vn -0.0000 -0.7071 0.7071
vn -0.9998 -0.0155 -0.0155
vn 0.0156 -0.9997 0.0192
vt 0.375000 1.000000
vt 0.125000 0.750000
vt 0.625000 1.000000
vt 0.875000 0.750000
vt 0.375000 0.250000
vt 0.125000 0.500000
vt 0.625000 0.250000
vt 0.875000 0.500000
vt 0.375000 0.750000
vt 0.625000 0.750000
vt 0.375000 0.500000
vt 0.625000 0.500000
vt 0.467245 0.157755
vt 0.125000 0.500000
vt 0.375000 0.250000
vt 0.375000 1.000000
vt 0.125000 0.750000
vt 0.375000 0.000000
vt 0.467245 0.092245
vt 0.625000 1.000000
vt 0.875000 0.750000
vt 0.625000 0.000000
vt 0.532755 0.092245
vt 0.875000 0.500000
vt 0.625000 0.250000
vt 0.532755 0.157755
vt 0.625000 1.000000
vt 0.875000 0.750000
vt 0.782150 0.657150
vt 0.782150 0.592850
vt 0.625000 0.250000
vt 0.875000 0.500000
vt 0.717850 0.592850
vt 0.625000 0.500000
vt 0.717850 0.657150
vt 0.625000 0.750000
vt 0.375000 1.000000
vt 0.125000 0.750000
vt 0.625000 1.000000
vt 0.875000 0.750000
vt 0.375000 0.250000
vt 0.125000 0.500000
vt 0.625000 0.250000
vt 0.875000 0.500000
vt 0.375000 0.750000
vt 0.625000 0.750000
vt 0.375000 0.500000
vt 0.625000 0.500000
vt 0.467245 0.157755
vt 0.125000 0.500000
vt 0.375000 0.250000
vt 0.375000 1.000000
vt 0.125000 0.750000
vt 0.375000 0.000000
vt 0.467245 0.092245
vt 0.625000 1.000000
vt 0.875000 0.750000
vt 0.625000 0.000000
vt 0.532755 0.092245
vt 0.875000 0.500000
vt 0.625000 0.250000
vt 0.532755 0.157755
vt 0.625000 1.000000
vt 0.875000 0.750000
vt 0.782150 0.657150
vt 0.782150 0.592850
vt 0.625000 0.250000
vt 0.875000 0.500000
vt 0.717850 0.592850
vt 0.625000 0.500000
vt 0.717850 0.657150
vt 0.625000 0.750000
vt 0.375000 1.000000
vt 0.125000 0.750000
vt 0.625000 1.000000
vt 0.875000 0.750000
vt 0.375000 0.250000
vt 0.125000 0.500000
vt 0.625000 0.250000
vt 0.875000 0.500000
vt 0.375000 0.750000
vt 0.625000 0.750000
vt 0.375000 0.500000
vt 0.625000 0.500000
vt 0.467245 0.157755
vt 0.125000 0.500000
vt 0.375000 0.250000
vt 0.375000 1.000000
vt 0.125000 0.750000
vt 0.375000 0.000000
vt 0.467245 0.092245
vt 0.625000 1.000000
vt 0.875000 0.750000
vt 0.625000 0.000000
vt 0.532755 0.092245
vt 0.875000 0.500000
vt 0.625000 0.250000
vt 0.532755 0.157755
vt 0.625000 1.000000
vt 0.875000 0.750000
vt 0.782150 0.657150
vt 0.782150 0.592850
vt 0.625000 0.250000
vt 0.875000 0.500000
vt 0.717850 0.592850
vt 0.625000 0.500000
vt 0.717850 0.657150
vt 0.625000 0.750000
vt 0.375000 1.000000
vt 0.125000 0.750000
vt 0.625000 1.000000
vt 0.875000 0.750000
vt 0.375000 0.250000
vt 0.125000 0.500000
vt 0.625000 0.250000
vt 0.875000 0.500000
vt 0.375000 0.750000
vt 0.625000 0.750000
vt 0.375000 0.500000
vt 0.625000 0.500000
vt 0.467245 0.157755
vt 0.125000 0.500000
vt 0.375000 0.250000
vt 0.375000 1.000000
vt 0.125000 0.750000
vt 0.375000 0.000000
vt 0.467245 0.092245
vt 0.625000 1.000000
vt 0.875000 0.750000
vt 0.625000 0.000000
vt 0.532755 0.092245
vt 0.875000 0.500000
vt 0.625000 0.250000
vt 0.532755 0.157755
vt 0.625000 1.000000
vt 0.875000 0.750000
vt 0.782150 0.657150
vt 0.782150 0.592850
vt 0.625000 0.250000
vt 0.875000 0.500000
vt 0.717850 0.592850
vt 0.625000 0.500000
vt 0.717850 0.657150
vt 0.625000 0.750000
s 0
f 1/1/1 2/3/1 13/20/1 11/16/1
f 3/5/2 4/7/2 8/12/2 7/11/2
f 7/11/3 8/12/3 6/10/3 5/9/3
f 5/9/1 6/10/1 2/3/1 1/1/1
f 3/6/4 7/11/4 5/9/4 1/2/4
f 4/7/2 3/5/2 10/15/2 15/25/2
f 3/6/4 1/2/4 11/17/4 10/14/4
f 2/4/5 4/8/5 15/24/5 13/21/5
f 2/3/1 6/10/1 24/36/1 17/27/1
f 21/33/6 19/30/6 18/29/6 23/35/6
f 8/12/2 4/7/2 20/31/2 22/34/2
f 6/10/7 8/12/7 22/34/7 24/36/7
f 10/15/8 11/18/8 12/19/8 9/13/8
f 11/18/9 13/22/9 14/23/9 12/19/9
f 13/22/10 15/25/10 16/26/10 14/23/10
f 15/25/11 10/15/11 9/13/11 16/26/11
f 12/19/12 14/23/12 16/26/12 9/13/12
f 18/29/13 19/30/13 20/32/13 17/28/13
f 19/30/14 21/33/14 22/34/14 20/32/14
f 21/33/15 23/35/15 24/36/15 22/34/15
f 23/35/16 18/29/16 17/28/16 24/36/16
f 4/8/17 2/4/17 17/28/17 20/32/17
f 25/37/1 35/52/1 37/56/1 26/39/1
f 27/41/2 31/47/2 32/48/2 28/43/2
f 31/47/18 29/45/18 30/46/18 32/48/18
f 29/45/1 25/37/1 26/39/1 30/46/1
f 27/42/4 25/38/4 29/45/4 31/47/4
f 28/43/2 39/61/2 34/51/2 27/41/2
f 27/42/4 34/50/4 35/53/4 25/38/4
f 26/40/19 37/57/19 39/60/19 28/44/19
f 26/39/1 41/63/1 48/72/1 30/46/1
f 45/69/6 47/71/6 42/65/6 43/66/6
f 32/48/2 46/70/2 44/67/2 28/43/2
f 30/46/17 48/72/17 46/70/17 32/48/17
f 34/51/20 33/49/20 36/55/20 35/54/20
f 35/54/21 36/55/21 38/59/21 37/58/21
f 37/58/22 38/59/22 40/62/22 39/61/22
f 39/61/23 40/62/23 33/49/23 34/51/23
f 36/55/24 33/49/24 40/62/24 38/59/24
f 42/65/15 41/64/15 44/68/15 43/66/15
f 43/66/14 44/68/14 46/70/14 45/69/14
f 45/69/13 46/70/13 48/72/13 47/71/13
f 47/71/16 48/72/16 41/64/16 42/65/16
f 28/44/7 44/68/7 41/64/7 26/40/7
f 49/73/1 59/88/1 61/92/1 50/75/1
f 51/77/2 55/83/2 56/84/2 52/79/2
f 55/83/25 53/81/25 54/82/25 56/84/25
f 53/81/1 49/73/1 50/75/1 54/82/1
f 51/78/6 49/74/6 53/81/6 55/83/6
f 52/79/2 63/97/2 58/87/2 51/77/2
f 51/78/6 58/86/6 59/89/6 49/74/6
f 50/76/26 61/93/26 63/96/26 52/80/26
f 50/75/1 65/99/1 72/108/1 54/82/1
f 69/105/4 71/107/4 66/101/4 67/102/4
f 56/84/2 70/106/2 68/103/2 52/79/2
f 54/82/7 72/108/7 70/106/7 56/84/7
f 58/87/10 57/85/10 60/91/10 59/90/10
f 59/90/9 60/91/9 62/95/9 61/94/9
f 61/94/8 62/95/8 64/98/8 63/97/8
f 63/97/11 64/98/11 57/85/11 58/87/11
f 60/91/12 57/85/12 64/98/12 62/95/12
f 66/101/27 65/100/27 68/104/27 67/102/27
f 67/102/28 68/104/28 70/106/28 69/105/28
f 69/105/29 70/106/29 72/108/29 71/107/29
f 71/107/30 72/108/30 65/100/30 66/101/30
f 52/80/17 68/104/17 65/100/17 50/76/17
f 73/109/1 74/111/1 85/128/1 83/124/1
f 75/113/2 76/115/2 80/120/2 79/119/2
f 79/119/31 80/120/31 78/118/31 77/117/31
f 77/117/1 78/118/1 74/111/1 73/109/1
f 75/114/6 79/119/6 77/117/6 73/110/6
f 76/115/2 75/113/2 82/123/2 87/133/2
f 75/114/6 73/110/6 83/125/6 82/122/6
f 74/112/32 76/116/32 87/132/32 85/129/32
f 74/111/1 78/118/1 96/144/1 89/135/1
f 93/141/4 91/138/4 90/137/4 95/143/4
f 80/120/2 76/115/2 92/139/2 94/142/2
f 78/118/17 80/120/17 94/142/17 96/144/17
f 82/123/22 83/126/22 84/127/22 81/121/22
f 83/126/21 85/130/21 86/131/21 84/127/21
f 85/130/20 87/133/20 88/134/20 86/131/20
f 87/133/23 82/123/23 81/121/23 88/134/23
f 84/127/24 86/131/24 88/134/24 81/121/24
f 90/137/29 91/138/29 92/140/29 89/136/29
f 91/138/28 93/141/28 94/142/28 92/140/28
f 93/141/27 95/143/27 96/144/27 94/142/27
f 95/143/30 90/137/30 89/136/30 96/144/30
f 76/116/7 74/112/7 89/136/7 92/140/7
